<svg viewBox="0 0 48 48" xmlns="http://www.w3.org/2000/svg"><style>:root{--i:#18181a;--d:#18181a}@media (prefers-color-scheme:dark){:root{--i:#f2f2ef;--d:#000}}</style><path d="M11 8H45.5L37 40H2.5Z" transform="translate(.8 1.9)" fill="var(--d)" stroke="var(--d)" stroke-width="2.4" stroke-linejoin="round"/><path d="M11 8H45.5L37 40H2.5Z" fill="#fff04d" stroke="#fff04d" stroke-width="2.4" stroke-linejoin="round"/><path d="M37.9 29.29Q37.9 32.2 35.87 33.9Q33.83 35.61 30.2 35.61H17.4Q13.73 35.61 11.52 33.64Q9.3 31.67 9.3 27.84H14.92Q14.92 29.29 15.52 30.03Q16.11 30.78 17.24 30.78Q18.26 30.78 18.82 30.12Q19.38 29.46 19.38 28.2V12.39H29.83Q33.37 12.39 35.37 14.01Q37.37 15.63 37.37 18.41Q37.37 20.46 36.3 21.82Q35.22 23.17 33.44 23.7Q35.45 24.13 36.68 25.7Q37.9 27.27 37.9 29.29ZM25.04 21.78H28.74Q30.13 21.78 30.87 21.17Q31.62 20.56 31.62 19.37Q31.62 18.18 30.87 17.55Q30.13 16.92 28.74 16.92H25.04ZM32.18 28.53Q32.18 27.31 31.37 26.61Q30.56 25.92 29.14 25.92H25.04V31.04H29.2Q30.63 31.04 31.4 30.4Q32.18 29.75 32.18 28.53Z" fill="#18181a"/></svg>